<?xml version="1.0" standalone="no"?>
<!DOCTYPE svg PUBLIC "-//W3C//DTD SVG 20010904//EN"
 "http://www.w3.org/TR/2001/REC-SVG-20010904/DTD/svg10.dtd">
<svg version="1.0" xmlns="http://www.w3.org/2000/svg"
 width="240.000000pt" height="240.000000pt" viewBox="0 0 240.000000 240.000000"
 preserveAspectRatio="xMidYMid meet">

<g transform="translate(0.000000,240.000000) scale(0.100000,-0.100000)"
fill="#000000" stroke="none">
<path d="M0 1200 l0 -1200 1200 0 1200 0 0 1200 0 1200 -1200 0 -1200 0 0
-1200z m1452 1129 c-34 -13 -60 -48 -67 -89 -4 -19 -11 -45 -17 -57 -6 -12 -8
-45 -6 -74 8 -77 19 -82 152 -74 117 7 159 20 325 98 86 40 112 41 119 5 4
-19 -10 -24 -111 -49 -43 -10 -88 -24 -100 -31 -40 -21 -142 -44 -207 -47 -80
-3 -152 -18 -162 -34 -11 -17 -10 -111 2 -141 6 -18 17 -26 32 -26 33 0 202
-43 277 -71 153 -55 208 -179 130 -291 -27 -37 -24 -48 14 -48 77 0 198 -30
253 -62 115 -67 120 -118 16 -165 -46 -21 -73 -27 -138 -27 -44 -1 -92 4 -105
10 -29 14 -127 44 -143 44 -20 0 -106 61 -106 75 0 7 -7 18 -15 25 -8 7 -12
17 -8 22 3 6 6 20 7 31 1 16 15 24 66 39 36 11 75 19 88 19 13 -1 26 7 29 17
4 9 19 35 35 56 34 48 36 94 6 147 -30 54 -83 86 -191 114 -148 39 -264 40
-252 2 2 -7 6 -24 9 -39 4 -15 20 -44 38 -63 26 -31 29 -39 20 -58 -7 -12 -18
-51 -26 -87 -8 -36 -17 -76 -21 -89 -7 -21 -6 -23 15 -16 18 6 22 4 17 -8 -9
-24 43 -57 91 -57 46 0 66 -25 31 -38 -19 -7 -19 -9 -5 -21 9 -7 23 -10 32 -7
12 4 15 2 11 -9 -4 -8 5 -23 20 -35 19 -15 21 -20 9 -20 -9 0 -16 -5 -16 -11
0 -6 7 -8 17 -5 19 8 33 -9 33 -41 0 -25 -9 -27 -61 -16 -32 6 -32 7 -10 13
35 8 37 28 4 41 -15 6 -36 16 -47 21 -12 6 -22 6 -29 -1 -17 -17 -27 -13 -27
9 0 28 -14 25 -31 -7 -8 -15 -21 -35 -30 -44 -10 -9 -20 -31 -24 -49 -9 -41
11 -63 82 -89 61 -22 123 -67 124 -90 0 -9 2 -30 5 -48 3 -26 -2 -36 -27 -57
-95 -80 -373 -76 -451 6 -34 35 -35 48 -3 98 14 22 25 44 25 50 0 5 7 10 15
10 23 0 30 28 14 58 -19 36 -61 82 -76 82 -20 0 -123 -82 -123 -97 0 -8 -10
-33 -22 -56 -12 -23 -22 -46 -23 -52 -2 -29 -32 -95 -62 -134 -18 -24 -33 -49
-33 -56 0 -7 -7 -18 -16 -26 -21 -17 -74 -133 -74 -162 0 -13 -6 -31 -12 -40
-11 -15 -13 -9 -13 37 0 30 -3 58 -8 62 -4 4 -24 -9 -43 -29 -20 -20 -40 -37
-44 -37 -5 0 -27 -16 -50 -35 -35 -29 -50 -35 -88 -35 -26 0 -64 9 -88 20 -47
23 -124 101 -124 126 0 9 -9 29 -20 44 -11 16 -39 74 -61 130 -35 87 -40 109
-34 148 10 75 7 131 -10 164 -8 17 -13 33 -10 36 10 11 35 -22 41 -54 8 -42
18 -43 33 -5 13 30 47 51 84 51 46 1 201 90 205 119 2 11 8 21 15 21 6 0 29 9
51 19 23 11 67 22 99 26 31 3 63 13 71 21 17 16 36 19 36 4 0 -16 40 -12 46 5
9 23 24 18 24 -8 0 -15 9 -28 23 -34 29 -15 118 -35 124 -29 8 7 84 -60 100
-89 9 -15 13 -16 34 -4 24 14 24 14 2 17 -39 6 -10 52 33 52 12 0 27 7 34 15
7 9 20 13 28 10 8 -3 16 3 19 15 3 11 11 20 18 20 16 0 65 38 65 51 0 15 -204
108 -310 141 -52 16 -115 37 -140 45 -25 9 -57 16 -71 16 -21 0 -25 4 -21 23
3 18 -2 26 -22 35 -17 8 -25 18 -21 27 3 7 5 23 5 35 0 16 3 18 12 9 16 -16
53 -15 70 1 8 8 41 15 83 16 38 1 74 5 79 9 6 3 5 -1 -1 -9 -7 -9 -30 -21 -52
-27 -55 -17 -68 -35 -47 -68 20 -30 135 -85 226 -109 34 -9 85 -25 112 -36 28
-11 53 -17 56 -14 11 11 0 118 -14 132 -19 20 -18 23 15 58 33 34 56 104 41
119 -6 6 -10 18 -10 27 0 10 -10 19 -22 22 -21 4 -20 4 3 6 19 1 29 8 33 24 9
35 7 115 -3 122 -6 3 -25 -4 -43 -15 -39 -24 -48 -25 -48 -6 0 8 9 18 20 21
11 3 20 11 20 16 0 12 -47 11 -130 -1 -49 -7 -90 -6 -165 5 -55 8 -130 16
-168 18 -74 4 -92 14 -82 46 9 28 31 27 139 -10 67 -24 115 -33 181 -36 111
-6 242 10 263 31 19 18 29 130 14 149 -6 6 -13 28 -17 47 -9 49 -39 82 -83 90
l-37 8 39 1 c28 1 49 -6 72 -24 37 -28 50 -31 61 -12 14 23 57 47 83 46 l25 0
-23 -10z m498 -323 l-1 -41 -14 40 c-20 54 -20 71 0 55 9 -8 15 -29 15 -54z
m-1530 -44 c0 -4 -10 -13 -22 -21 -23 -14 -23 -14 -4 8 20 22 26 25 26 13z
m-219 -309 c-8 -15 -10 -15 -11 -2 0 17 10 32 18 25 2 -3 -1 -13 -7 -23z m-25
-89 c-3 -9 -9 -28 -13 -42 l-6 -26 -9 23 c-4 13 -4 30 2 42 13 23 35 26 26 3z
m-26 -114 c0 -28 -2 -29 -20 -18 -11 7 -20 16 -20 21 0 4 5 5 10 2 6 -3 13 1
16 9 9 24 14 19 14 -14z m670 -70 c0 -5 -2 -10 -4 -10 -3 0 -8 5 -11 10 -3 6
-1 10 4 10 6 0 11 -4 11 -10z m297 -604 c2 -2 -17 -24 -42 -50 -47 -46 -51
-66 -13 -66 39 0 12 -10 -36 -14 -46 -3 -47 -3 -44 23 2 16 11 28 23 32 12 3
19 12 17 22 -2 10 4 20 13 23 8 3 15 15 15 26 0 18 4 20 32 14 17 -3 33 -8 35
-10z m-87 -172 c0 -8 -7 -14 -15 -14 -15 0 -21 21 -9 33 10 9 24 -2 24 -19z
m-60 -88 c0 -3 -4 -8 -10 -11 -5 -3 -10 -1 -10 4 0 6 5 11 10 11 6 0 10 -2 10
-4z"/>
<path d="M1238 1180 c-29 -18 -61 -69 -50 -83 5 -7 12 -29 16 -49 4 -21 12
-38 19 -38 15 0 79 39 90 54 13 19 -4 89 -27 108 -25 20 -26 20 -48 8z"/>
<path d="M491 1073 c-84 -41 -83 -166 2 -211 39 -21 43 -26 39 -55 -6 -49 14
-60 63 -37 22 10 49 25 60 34 18 15 18 18 4 28 -14 10 -11 15 20 45 27 25 43
33 63 30 22 -3 27 1 32 26 13 65 9 76 -31 82 -77 12 -127 27 -172 50 -45 22
-49 23 -80 8z"/>
<path d="M318 964 c-4 -3 -4 -13 -1 -22 5 -12 2 -14 -13 -7 -37 16 -94 18 -95
4 -5 -56 70 -245 96 -243 8 1 15 -6 15 -15 0 -9 18 -29 40 -45 21 -16 39 -36
38 -45 -3 -37 4 -49 31 -61 39 -16 58 -4 35 21 -23 26 -12 34 27 20 81 -28 91
-2 22 58 -55 49 -87 112 -79 158 4 26 -1 40 -22 65 -15 17 -34 50 -43 72 -15
38 -37 55 -51 40z"/>
<path d="M623 743 c-18 -9 -33 -20 -33 -25 0 -15 19 -8 47 17 33 28 30 30 -14
8z"/>
</g>
</svg>
