<?xml version="1.0" standalone="no"?>
<!DOCTYPE svg PUBLIC "-//W3C//DTD SVG 20010904//EN"
 "http://www.w3.org/TR/2001/REC-SVG-20010904/DTD/svg10.dtd">
<svg version="1.0" xmlns="http://www.w3.org/2000/svg"
 width="1485.000000pt" height="1695.000000pt" viewBox="0 0 1485.000000 1695.000000"
 preserveAspectRatio="xMidYMid meet">

<g transform="translate(0.000000,1695.000000) scale(0.100000,-0.100000)"
fill="#000000" stroke="none">
<path d="M0 14800 c0 -2308 -3 -2181 49 -2126 34 37 169 86 234 86 21 0 107
22 191 50 129 42 164 50 228 50 70 0 80 -3 125 -34 27 -19 74 -46 104 -61 30
-15 73 -43 95 -62 40 -33 109 -72 266 -153 149 -77 161 -62 154 184 -3 97 -8
180 -10 185 -13 20 -26 191 -16 215 18 49 94 64 149 30 145 -92 250 -155 326
-196 50 -27 124 -71 165 -98 41 -27 108 -67 148 -90 72 -41 112 -81 131 -132
6 -15 11 -138 12 -285 1 -189 5 -268 15 -297 8 -21 14 -55 14 -75 0 -65 59
-125 199 -202 105 -57 134 -58 158 -8 13 26 6 323 -16 684 -5 77 -9 220 -10
318 -1 176 -1 178 24 202 13 14 32 25 42 25 25 -1 177 -86 358 -201 33 -21 76
-45 95 -53 74 -30 380 -234 404 -268 14 -20 16 -92 16 -608 0 -322 5 -603 10
-624 16 -69 154 -188 244 -210 16 -4 43 -18 60 -31 17 -13 63 -40 101 -60 39
-21 83 -48 98 -61 37 -32 84 -31 128 1 19 14 54 35 79 46 25 12 70 39 100 59
30 21 82 52 115 69 59 31 89 49 235 142 41 26 101 59 133 73 32 14 71 35 87
46 15 11 56 34 90 51 86 42 200 136 200 163 0 12 -15 38 -32 57 -18 20 -45 52
-61 72 -22 29 -41 40 -96 57 -63 18 -95 20 -400 20 -270 0 -337 3 -360 14 -37
20 -85 76 -115 134 -13 26 -54 92 -91 147 -108 161 -122 198 -91 241 14 18 30
19 338 20 178 0 329 1 336 2 23 4 52 42 52 70 0 20 -15 42 -57 84 -95 92 -99
93 -313 93 -102 0 -193 4 -203 9 -10 5 -50 56 -89 115 -39 58 -86 125 -105
148 -44 53 -113 187 -113 219 0 13 9 33 20 44 18 18 33 20 159 20 114 0 143 3
155 16 39 39 28 105 -28 170 -19 22 -48 65 -65 97 -17 31 -44 75 -61 98 -40
56 -40 110 1 204 18 41 34 101 39 143 12 96 35 142 82 165 37 18 40 18 110 -1
67 -18 112 -33 208 -68 19 -7 55 -19 80 -26 40 -12 51 -22 103 -98 31 -47 71
-113 89 -148 50 -100 123 -149 158 -107 6 8 36 63 65 122 59 121 93 163 128
163 31 0 34 -4 103 -135 31 -60 75 -136 96 -168 59 -88 98 -176 98 -224 0 -52
-40 -161 -83 -228 -76 -116 -95 -210 -58 -292 11 -23 31 -49 46 -59 23 -15 29
-15 55 -3 48 24 103 102 185 266 43 87 88 171 99 187 12 16 32 52 46 80 19 40
31 52 51 54 35 4 91 -59 143 -162 21 -41 54 -99 73 -128 47 -72 113 -204 113
-225 0 -10 -18 -47 -40 -83 -22 -36 -40 -72 -40 -80 0 -8 -18 -42 -40 -75 -22
-33 -47 -82 -56 -110 -10 -27 -29 -68 -44 -90 -15 -22 -41 -69 -58 -105 -17
-36 -45 -90 -61 -120 -34 -61 -33 -76 8 -130 15 -19 37 -51 49 -71 48 -80 122
-78 252 6 36 23 92 57 125 75 33 19 71 42 84 52 14 10 44 27 69 38 24 11 65
35 90 54 26 18 72 46 102 61 30 15 74 41 98 57 23 16 59 37 80 46 79 36 139
82 162 126 21 38 22 47 12 89 -7 28 -12 133 -12 268 l0 223 -52 49 c-29 27
-79 62 -113 79 -33 17 -73 40 -90 53 -16 12 -50 32 -75 45 -25 12 -65 37 -90
54 -24 17 -72 47 -107 66 -73 41 -188 110 -258 155 -28 18 -66 40 -85 49 -19
10 -79 48 -133 84 -153 103 -144 69 -152 607 -8 511 -13 480 84 480 56 0 65
-3 135 -52 42 -29 79 -53 84 -53 4 0 36 -20 72 -45 151 -105 208 -143 265
-174 33 -19 80 -49 105 -66 25 -18 65 -43 90 -55 25 -13 65 -39 90 -60 25 -20
56 -43 70 -50 14 -7 41 -25 60 -40 51 -40 77 -43 107 -14 24 24 24 26 20 172
-3 118 -8 158 -24 201 -26 66 -41 81 -123 115 -36 15 -94 47 -130 70 -97 64
-167 106 -240 143 -77 40 -120 79 -148 136 -20 40 -21 60 -24 496 l-3 453 33
29 c18 16 39 29 46 29 8 0 41 -20 74 -45 33 -25 63 -45 67 -45 4 0 39 -22 79
-50 40 -27 76 -50 80 -50 4 0 48 -29 98 -65 50 -36 101 -65 113 -65 12 0 32
11 45 25 l23 25 -2 342 c-2 236 1 353 9 373 6 17 112 132 236 256 123 124 224
233 224 242 0 16 -259 17 -3690 17 l-3690 0 0 -2150z"/>
<path d="M7500 16933 c0 -9 103 -117 229 -240 172 -168 233 -234 246 -266 15
-38 16 -74 10 -368 l-7 -327 22 -22 c44 -44 98 -21 315 138 33 24 70 48 83 53
12 5 46 27 76 49 64 49 104 53 135 14 21 -26 21 -36 21 -488 l0 -462 -29 -46
c-29 -45 -70 -78 -166 -133 -27 -15 -95 -58 -150 -94 -55 -36 -138 -86 -185
-111 -66 -35 -91 -55 -115 -90 -29 -44 -30 -48 -33 -185 -3 -162 5 -188 55
-193 36 -4 100 29 173 88 25 20 69 49 99 64 30 15 70 39 90 55 20 16 52 36 71
46 49 25 197 122 246 161 22 18 65 46 96 63 31 16 78 45 105 64 79 56 148 89
178 85 40 -4 68 -46 66 -99 -1 -24 -5 -233 -9 -464 -4 -231 -11 -429 -16 -440
-12 -28 -57 -75 -72 -75 -6 0 -46 -22 -87 -50 -42 -27 -91 -57 -109 -66 -18
-9 -59 -34 -90 -55 -32 -22 -61 -39 -66 -39 -4 0 -59 -34 -122 -75 -63 -41
-141 -89 -173 -107 -32 -18 -83 -52 -114 -75 -30 -23 -93 -61 -139 -84 -46
-23 -96 -55 -112 -71 -60 -57 -62 -73 -64 -355 -1 -246 -1 -260 20 -300 23
-45 55 -72 116 -97 21 -9 66 -35 99 -57 34 -23 84 -52 112 -64 28 -13 64 -34
81 -48 16 -13 58 -39 92 -56 35 -18 82 -45 104 -61 22 -16 64 -38 93 -49 56
-21 179 -96 233 -143 47 -41 73 -37 122 20 69 77 100 139 100 199 0 44 -6 61
-43 115 -23 35 -48 76 -55 92 -7 16 -28 52 -46 80 -119 184 -246 420 -246 455
0 15 11 43 25 63 14 20 25 41 25 46 0 13 160 325 177 344 8 9 30 24 48 32 47
23 78 9 99 -46 10 -24 35 -65 56 -93 21 -27 48 -75 59 -105 11 -30 39 -79 61
-108 22 -30 45 -71 51 -93 23 -75 109 -134 164 -113 25 10 78 122 72 153 -11
56 -46 139 -82 191 -20 30 -48 75 -62 100 -13 25 -35 63 -48 85 -14 22 -25 48
-25 57 0 9 17 50 38 90 21 40 42 85 45 99 4 15 27 60 52 100 25 40 45 80 45
89 1 24 36 96 59 119 30 30 103 29 131 -1 11 -12 20 -27 20 -33 0 -14 106
-176 122 -187 23 -14 57 -9 76 12 10 11 46 75 80 143 72 145 143 229 208 245
134 35 201 57 231 75 40 23 106 19 133 -10 28 -30 76 -132 104 -223 20 -64 26
-106 26 -173 0 -98 -7 -118 -86 -235 -52 -78 -89 -184 -74 -212 12 -23 73 -44
108 -37 15 3 52 11 82 17 75 16 139 8 162 -20 26 -32 22 -59 -17 -131 -19 -35
-56 -104 -81 -154 -26 -49 -69 -123 -96 -163 -71 -105 -88 -112 -296 -112
-121 0 -170 -4 -190 -14 -28 -15 -92 -79 -130 -130 -28 -37 -30 -106 -4 -129
24 -22 92 -22 161 -1 29 8 85 17 126 19 40 2 86 10 102 18 39 20 260 28 301
11 44 -18 49 -57 17 -125 -13 -30 -25 -59 -25 -65 0 -6 -9 -22 -19 -36 -11
-14 -44 -71 -74 -127 -29 -57 -69 -122 -88 -146 -58 -73 -75 -79 -244 -87 -82
-4 -245 -13 -361 -20 -204 -13 -213 -14 -250 -40 -54 -39 -156 -195 -149 -228
9 -37 92 -118 155 -150 30 -15 79 -44 107 -63 29 -20 79 -45 110 -57 32 -12
81 -39 109 -61 28 -21 70 -46 94 -54 25 -9 54 -24 65 -34 11 -10 45 -31 75
-46 30 -15 80 -45 110 -65 30 -20 74 -47 97 -58 23 -12 58 -33 79 -47 55 -37
96 -32 154 20 38 35 181 130 246 165 84 44 182 113 202 141 15 22 17 83 22
641 l5 616 30 44 c23 32 56 57 135 101 58 32 127 75 155 96 27 22 73 51 100
65 28 15 73 41 100 58 223 139 332 198 364 198 67 0 90 -115 56 -270 -11 -48
-14 -142 -15 -356 0 -230 -3 -300 -15 -333 -8 -23 -16 -87 -17 -142 l-3 -100
33 -30 c52 -47 95 -37 197 45 22 18 62 45 88 60 63 37 77 67 77 166 0 49 6 95
15 117 12 28 15 83 15 262 0 253 -1 249 77 316 44 37 164 114 283 180 121 68
188 107 254 151 141 93 229 129 262 106 29 -20 32 -50 26 -334 -5 -268 -4
-289 13 -308 26 -29 50 -25 124 19 36 21 85 49 108 62 100 57 233 140 259 162
16 14 57 38 91 56 77 38 166 42 256 11 31 -11 80 -20 109 -20 33 0 85 -12 138
-31 47 -17 108 -39 135 -49 28 -10 76 -20 108 -24 l57 -6 0 2100 0 2100 -3675
0 c-3450 0 -3675 -1 -3675 -17z"/>
<path d="M0 8405 c0 -3476 2 -4125 14 -4125 22 0 76 166 76 236 0 45 6 73 25
110 14 27 38 85 52 129 22 66 36 89 78 130 28 28 71 58 95 69 96 39 131 57
171 86 23 16 48 30 54 30 7 0 37 16 66 36 30 20 79 49 110 65 31 15 64 35 73
44 42 42 -3 100 -123 157 -47 23 -104 53 -126 68 -22 14 -71 38 -109 54 -188
75 -219 192 -62 230 16 4 43 18 60 31 17 12 58 37 91 55 33 17 76 44 95 59 19
15 55 35 80 45 25 10 61 30 80 44 33 25 183 108 280 155 81 39 152 23 263 -58
27 -19 66 -39 87 -45 21 -6 60 -25 87 -43 26 -19 74 -45 105 -60 32 -14 75
-39 95 -56 52 -41 109 -64 144 -56 15 4 58 28 94 55 47 35 82 52 122 61 77 15
118 55 110 106 -9 54 -48 89 -116 102 -39 8 -135 51 -287 128 -126 64 -269
136 -319 161 -49 25 -108 58 -130 73 -22 16 -73 40 -114 54 -106 36 -121 47
-121 93 0 52 54 105 137 132 33 12 78 36 100 54 21 19 68 48 103 65 90 44 215
115 255 145 18 14 58 35 88 46 30 11 76 35 103 53 39 25 59 32 99 32 43 0 60
-7 119 -48 39 -26 75 -47 82 -47 6 0 36 -17 65 -37 30 -20 84 -49 122 -65 37
-15 86 -40 110 -56 23 -16 52 -32 64 -36 12 -4 51 -26 85 -50 35 -23 84 -50
110 -59 26 -8 73 -34 104 -56 31 -22 72 -45 93 -52 20 -6 61 -29 91 -49 62
-43 126 -58 162 -39 13 6 39 24 58 39 34 27 107 69 245 140 92 47 218 133 244
166 21 26 21 36 21 551 l0 525 -29 29 c-28 28 -33 29 -126 29 -103 0 -149 -15
-191 -62 -45 -49 -168 -244 -190 -300 -12 -32 -38 -77 -58 -99 -19 -23 -43
-64 -52 -91 -10 -30 -39 -76 -75 -118 l-60 -69 -167 -4 c-92 -1 -203 -9 -248
-17 -95 -16 -135 -6 -159 41 -17 32 -12 49 31 106 18 23 44 68 59 100 15 32
42 81 60 108 80 127 155 275 155 308 0 54 -42 75 -127 62 -38 -5 -57 -17 -105
-63 -33 -31 -76 -86 -96 -122 -55 -99 -117 -193 -142 -215 -19 -18 -41 -21
-179 -26 -86 -3 -169 -11 -184 -17 -16 -7 -66 -12 -113 -12 -77 0 -87 2 -109
25 -45 44 -30 103 54 214 49 66 53 100 14 131 -27 21 -33 22 -223 15 -128 -5
-204 -3 -222 3 -26 11 -224 193 -289 266 -47 55 -45 93 8 148 23 24 79 83 125
132 46 49 103 102 127 117 45 29 46 29 205 29 165 0 223 9 251 37 22 22 12 58
-31 108 -19 22 -55 70 -80 108 -37 55 -45 74 -42 104 5 60 15 62 329 60 l278
-2 41 -40 c23 -22 80 -97 126 -166 126 -187 129 -189 242 -189 131 0 147 50
57 177 -30 43 -67 98 -82 122 -16 24 -42 65 -60 90 -144 209 -184 273 -181
288 7 37 44 43 268 43 118 -1 230 4 249 9 60 18 147 -38 198 -128 41 -72 113
-182 152 -230 19 -25 53 -70 74 -100 163 -238 191 -261 327 -261 92 0 126 13
164 63 l26 34 0 561 0 560 -49 54 c-32 35 -74 66 -118 88 -37 19 -97 54 -132
77 -36 24 -70 43 -76 43 -6 0 -40 20 -75 45 -36 25 -82 50 -104 56 -62 17
-146 -3 -214 -49 -31 -21 -93 -57 -137 -79 -114 -57 -256 -133 -285 -153 -14
-9 -97 -54 -185 -100 -88 -46 -179 -96 -202 -111 -50 -35 -189 -99 -213 -99
-24 0 -141 54 -214 99 -68 42 -154 90 -296 163 -52 27 -102 55 -110 62 -8 7
-35 20 -60 29 -25 9 -66 34 -92 54 -26 21 -59 46 -73 56 -49 35 -25 127 33
127 8 0 41 18 73 39 32 22 82 47 111 57 29 9 71 29 93 44 22 15 63 39 90 52
28 14 77 41 109 62 33 20 66 36 73 36 18 0 290 137 328 165 17 12 53 34 81 48
81 41 86 76 14 112 -28 14 -67 41 -88 59 -53 47 -97 67 -162 73 -69 7 -113 -7
-183 -54 -29 -19 -68 -41 -88 -48 -51 -18 -119 -54 -154 -81 -17 -13 -58 -35
-90 -50 -33 -15 -77 -40 -99 -56 -71 -51 -149 -47 -230 13 -22 16 -45 29 -52
29 -7 0 -43 21 -81 46 -37 25 -90 54 -118 65 -27 11 -68 30 -90 43 -22 14 -74
44 -115 67 -41 23 -84 50 -95 59 -11 9 -42 25 -69 35 -27 10 -65 32 -84 50
-29 26 -35 38 -35 73 0 23 6 48 12 56 15 18 291 156 312 156 8 0 36 14 62 30
26 17 71 42 100 56 29 15 55 32 59 38 15 22 8 55 -14 71 -68 48 -149 93 -190
108 -26 8 -67 29 -90 45 -24 16 -106 62 -183 102 -77 40 -144 76 -148 80 -16
15 -127 356 -127 391 0 65 -53 219 -76 219 -12 0 -14 -608 -14 -4125z"/>
<path d="M14805 12383 c-11 -54 -34 -130 -51 -169 -18 -40 -36 -94 -40 -120
-8 -58 -33 -111 -66 -140 -12 -12 -65 -43 -117 -68 -51 -26 -104 -55 -118 -66
-13 -10 -40 -24 -60 -31 -19 -6 -60 -29 -90 -50 -30 -21 -77 -45 -104 -54 -60
-20 -109 -64 -109 -99 0 -32 51 -72 117 -92 26 -8 60 -23 74 -33 14 -10 50
-31 80 -45 269 -132 315 -170 276 -230 -9 -13 -73 -54 -144 -91 -70 -37 -137
-75 -148 -85 -11 -10 -56 -36 -100 -57 -44 -22 -109 -59 -144 -81 -35 -23 -68
-42 -73 -42 -5 0 -38 -20 -75 -45 -36 -25 -72 -45 -80 -45 -8 0 -37 -10 -64
-21 l-50 -22 -47 21 c-26 12 -58 24 -72 28 -14 4 -50 23 -80 42 -30 20 -89 54
-130 75 -41 21 -82 45 -90 52 -9 8 -49 28 -90 45 -41 18 -84 40 -95 50 -50 44
-88 47 -130 10 -11 -10 -58 -37 -104 -59 -98 -48 -148 -84 -163 -117 -16 -34
11 -68 69 -89 45 -15 216 -95 293 -137 19 -10 64 -32 100 -49 36 -16 79 -37
95 -46 17 -9 82 -43 145 -76 63 -32 124 -67 135 -77 11 -10 39 -23 61 -29 79
-21 131 -58 149 -105 16 -40 16 -46 0 -75 -11 -21 -34 -40 -74 -60 -31 -15
-78 -42 -104 -60 -26 -17 -65 -38 -87 -46 -23 -8 -60 -30 -84 -50 -23 -19 -62
-41 -85 -49 -23 -9 -56 -26 -74 -40 -18 -14 -62 -38 -99 -55 -37 -16 -95 -48
-130 -71 -60 -39 -66 -41 -125 -38 -53 3 -70 10 -119 43 -31 22 -96 60 -144
85 -223 114 -256 132 -270 145 -8 7 -96 54 -194 104 -98 51 -191 100 -205 110
-42 30 -220 121 -237 121 -16 0 -119 -57 -192 -107 -153 -105 -216 -145 -296
-189 -77 -43 -91 -55 -112 -96 l-24 -47 0 -519 c0 -518 0 -519 22 -547 35 -45
74 -55 211 -55 122 0 124 0 171 31 53 35 82 71 119 145 14 27 43 72 64 100 22
27 56 78 77 114 71 124 201 304 232 322 27 15 60 18 292 18 170 1 268 -3 281
-10 46 -24 36 -81 -29 -165 -21 -27 -48 -70 -60 -95 -12 -25 -44 -74 -70 -110
-25 -36 -59 -87 -75 -115 -16 -27 -41 -68 -57 -89 -42 -58 -35 -102 22 -131
95 -49 195 17 308 202 31 52 67 111 79 131 35 57 46 62 159 62 61 0 128 6 164
16 45 11 97 15 192 12 128 -3 130 -3 154 -31 13 -15 24 -36 24 -46 0 -10 -34
-69 -75 -131 -41 -62 -76 -120 -76 -129 -3 -32 3 -46 23 -63 18 -16 44 -18
212 -18 168 0 195 -2 221 -19 50 -30 261 -247 279 -286 30 -63 16 -97 -78
-189 -111 -109 -177 -163 -223 -183 -32 -13 -66 -15 -214 -10 -177 5 -199 2
-227 -32 -17 -22 -7 -69 26 -111 38 -48 88 -130 96 -157 11 -35 -19 -91 -58
-110 -34 -16 -39 -16 -103 5 -60 20 -89 22 -254 22 -170 0 -189 2 -211 20 -21
16 -90 114 -153 215 -38 62 -147 165 -186 175 -110 30 -170 -95 -90 -188 17
-20 43 -55 57 -77 51 -83 98 -162 127 -215 17 -30 45 -73 63 -96 48 -60 52
-87 18 -121 l-29 -28 -250 2 c-137 1 -256 2 -262 3 -41 1 -132 118 -234 300
-29 52 -72 120 -95 150 -23 30 -52 77 -64 103 -29 61 -105 146 -147 163 -39
17 -294 19 -324 4 -48 -26 -48 -33 -49 -594 -1 -464 0 -530 14 -551 27 -40 69
-76 115 -97 24 -11 73 -40 108 -64 35 -24 69 -44 75 -44 6 0 40 -20 77 -44 94
-62 185 -106 222 -106 47 0 197 57 250 95 26 18 67 44 91 56 23 12 68 37 98
55 30 18 74 40 98 48 23 8 63 30 89 47 26 18 74 46 106 61 33 16 74 40 91 53
17 13 56 33 87 44 31 12 82 40 114 63 133 95 201 96 332 6 54 -36 185 -108
283 -154 41 -20 84 -44 95 -54 11 -10 90 -54 175 -98 160 -81 186 -104 171
-146 -11 -29 -121 -103 -204 -137 -37 -16 -80 -37 -95 -47 -15 -11 -150 -81
-301 -156 -151 -75 -285 -145 -297 -155 -13 -10 -54 -29 -90 -42 -62 -22 -104
-56 -104 -83 0 -20 47 -77 83 -101 19 -13 56 -31 84 -40 27 -9 72 -32 98 -51
27 -19 56 -34 65 -34 9 0 36 13 58 30 23 16 64 40 91 54 27 13 67 34 87 47 57
36 218 123 313 170 108 53 156 55 256 8 39 -18 86 -45 105 -59 19 -15 63 -38
98 -50 35 -13 81 -36 102 -51 21 -15 66 -42 101 -60 35 -17 79 -44 99 -59 19
-15 51 -33 71 -39 35 -11 150 -95 177 -129 31 -40 3 -79 -80 -110 -30 -11 -72
-32 -92 -46 -20 -13 -103 -57 -184 -96 -161 -79 -182 -93 -182 -123 0 -30 72
-93 153 -133 40 -20 80 -44 91 -53 10 -9 50 -32 90 -52 155 -78 262 -140 283
-166 13 -16 26 -44 29 -63 8 -49 54 -199 72 -235 16 -32 42 -153 42 -197 0
-18 5 -28 15 -28 13 0 15 456 15 4045 0 4316 1 4190 -45 3948z"/>
<path d="M6775 11254 c-33 -19 -84 -46 -113 -60 -30 -13 -79 -42 -110 -63
-117 -78 -201 -130 -236 -145 -20 -8 -60 -31 -89 -49 -28 -19 -83 -53 -122
-74 -38 -22 -92 -54 -120 -70 -27 -17 -69 -41 -92 -54 -138 -78 -183 -105
-228 -135 -27 -19 -78 -45 -112 -58 -34 -13 -83 -40 -109 -60 -26 -20 -73 -44
-103 -52 -33 -10 -69 -29 -88 -47 -62 -59 -37 -109 81 -169 45 -22 101 -54
125 -71 24 -16 67 -39 95 -49 28 -11 58 -25 66 -32 8 -7 47 -30 85 -51 39 -22
84 -49 100 -61 17 -12 58 -35 92 -52 34 -16 74 -39 90 -50 93 -65 196 -62 293
10 33 24 159 98 242 142 37 20 97 55 132 79 36 23 92 57 125 76 85 48 131 89
152 135 17 38 19 75 19 484 0 370 -2 448 -15 471 -27 53 -76 54 -160 5z"/>
<path d="M7993 11246 l-28 -24 -5 -286 c-3 -157 -1 -300 4 -318 5 -18 11 -106
15 -195 6 -159 6 -162 36 -204 22 -32 54 -56 122 -93 88 -49 169 -97 299 -177
34 -21 78 -45 99 -53 20 -9 50 -27 67 -41 49 -42 104 -65 167 -71 81 -9 143 8
221 60 69 46 170 107 278 169 36 21 73 44 82 51 8 8 44 29 80 47 36 18 84 47
108 65 24 18 67 40 95 50 29 9 58 21 65 27 25 20 12 54 -36 100 -52 48 -84 67
-146 87 -22 7 -60 27 -85 45 -26 18 -84 51 -131 75 -47 23 -96 50 -110 60 -14
9 -50 29 -80 44 -30 14 -75 39 -100 55 -25 16 -90 55 -145 86 -55 32 -122 71
-150 88 -27 17 -87 52 -133 77 -45 26 -91 55 -101 64 -11 10 -51 31 -91 47
-39 16 -90 44 -113 62 -55 44 -208 127 -235 127 -11 0 -34 -11 -49 -24z"/>
<path d="M7345 9404 c-32 -15 -84 -42 -114 -61 -31 -20 -76 -44 -100 -55 -25
-10 -66 -34 -92 -53 -26 -19 -72 -46 -101 -61 -29 -14 -66 -36 -83 -49 -16
-12 -62 -39 -102 -60 -39 -21 -91 -58 -115 -82 l-43 -44 -3 -453 -3 -452 24
-35 c12 -19 47 -48 77 -65 30 -18 87 -52 125 -77 39 -26 90 -53 115 -62 25 -9
70 -32 100 -51 80 -51 187 -115 352 -208 38 -21 38 -21 70 -2 60 35 212 119
287 158 41 21 90 50 108 64 18 14 50 32 70 40 20 9 63 34 95 55 32 22 78 48
103 59 51 22 130 91 151 133 13 24 15 96 15 453 0 254 -4 431 -10 442 -24 44
-108 105 -256 182 -88 46 -188 103 -223 127 -35 24 -69 43 -76 43 -7 0 -39 19
-71 42 -54 38 -192 98 -225 98 -8 -1 -42 -12 -75 -26z"/>
<path d="M4726 9339 l-26 -31 0 -890 0 -890 30 -30 c39 -38 57 -34 160 37 43
29 89 56 102 60 13 4 43 22 68 40 25 18 61 40 80 50 19 10 68 40 108 66 40 26
83 51 95 55 12 4 42 21 67 39 25 18 72 48 105 65 79 43 90 53 120 113 l25 51
0 361 c0 294 -3 364 -14 381 -21 29 -153 128 -211 157 -27 14 -74 41 -102 60
-29 20 -79 45 -110 57 -32 12 -65 27 -73 35 -8 7 -42 28 -75 46 -33 18 -80 47
-105 65 -25 17 -61 39 -80 49 -19 10 -52 33 -73 51 -20 19 -43 34 -51 34 -8 0
-26 -14 -40 -31z"/>
<path d="M10065 9288 c-16 -6 -51 -26 -77 -44 -25 -18 -66 -43 -90 -55 -23
-12 -74 -45 -113 -74 -38 -29 -104 -70 -145 -91 -41 -21 -106 -59 -145 -84
-38 -26 -88 -56 -111 -68 -56 -28 -138 -105 -158 -147 -14 -30 -17 -69 -16
-252 0 -120 -2 -248 -6 -284 -4 -44 -2 -79 6 -104 21 -63 94 -132 194 -182 49
-25 111 -60 139 -79 27 -19 55 -34 62 -34 6 0 43 -20 81 -45 37 -25 73 -45 79
-45 7 0 43 -22 81 -48 38 -26 83 -57 100 -68 17 -10 53 -34 79 -51 59 -40 97
-42 130 -8 l25 24 0 854 c0 667 -3 857 -12 870 -17 22 -65 29 -103 15z"/>
<path d="M8540 7086 c-48 -21 -126 -66 -279 -163 -25 -15 -72 -41 -105 -58
-103 -52 -126 -118 -126 -367 0 -143 -3 -174 -20 -218 -17 -44 -20 -75 -20
-233 -1 -139 -4 -188 -15 -207 -22 -38 -18 -64 16 -96 49 -47 96 -41 194 25
44 30 96 67 115 83 20 15 64 39 99 53 35 13 77 35 95 48 53 41 219 142 256
157 19 7 60 30 90 50 30 21 80 50 110 65 30 15 69 38 87 51 17 13 56 33 87 44
31 12 77 36 104 54 26 19 67 43 90 55 81 41 211 132 217 151 10 31 -13 60 -62
81 -45 19 -86 44 -231 138 -37 24 -92 55 -123 71 -31 15 -72 38 -90 52 -19 14
-59 38 -89 53 -30 15 -70 38 -88 52 -18 13 -62 38 -97 54 -79 36 -139 37 -215
5z"/>
<path d="M6145 7081 c-22 -10 -70 -38 -107 -62 -70 -46 -146 -92 -238 -142
-30 -17 -88 -52 -128 -79 -41 -26 -78 -48 -84 -48 -6 0 -31 -15 -57 -34 -25
-19 -72 -45 -103 -59 -32 -14 -64 -37 -74 -53 -18 -26 -18 -28 6 -71 27 -47
39 -56 135 -98 32 -14 84 -42 114 -62 29 -20 75 -44 102 -54 26 -10 75 -36
110 -59 34 -22 67 -40 73 -40 5 0 40 -20 77 -45 38 -25 85 -53 106 -61 21 -9
55 -29 75 -45 20 -16 58 -39 85 -51 26 -11 64 -33 83 -49 20 -15 62 -39 94
-53 32 -14 74 -40 94 -57 19 -17 54 -39 77 -49 23 -10 64 -34 91 -53 27 -19
60 -38 74 -42 14 -4 57 -27 96 -51 80 -50 111 -54 142 -21 22 23 22 25 23 498
1 298 -3 483 -9 500 -18 44 -63 89 -121 119 -31 15 -71 40 -90 54 -19 14 -57
33 -85 42 -28 9 -76 34 -107 54 -31 21 -80 51 -110 66 -30 15 -67 37 -84 49
-96 72 -184 91 -260 56z"/>
<path d="M10490 6019 c-25 -11 -65 -33 -90 -49 -25 -16 -65 -36 -89 -46 -25
-10 -76 -39 -115 -66 -38 -26 -75 -48 -82 -48 -7 0 -34 -16 -60 -36 -26 -20
-68 -46 -93 -57 -24 -10 -66 -35 -92 -53 -26 -19 -69 -42 -96 -51 -55 -19
-219 -127 -233 -154 -30 -54 9 -155 96 -249 70 -75 103 -90 196 -90 41 0 97
-7 124 -15 37 -11 103 -15 267 -15 210 0 219 -1 265 -24 58 -29 77 -50 96
-104 9 -23 26 -57 39 -75 14 -17 40 -59 58 -92 18 -33 47 -78 65 -100 59 -73
61 -117 9 -151 -24 -16 -49 -16 -327 -6 -173 6 -310 7 -323 2 -28 -11 -55 -47
-55 -75 0 -38 44 -99 89 -124 33 -18 66 -25 140 -31 53 -3 106 -12 118 -18 12
-7 56 -12 98 -12 46 0 87 -6 104 -14 33 -17 101 -91 101 -109 0 -7 21 -44 46
-82 25 -39 72 -122 105 -185 52 -101 59 -119 50 -142 -16 -43 -41 -50 -184
-48 -168 2 -163 3 -181 -16 -24 -23 -19 -55 12 -94 34 -41 172 -305 172 -328
0 -9 -18 -68 -39 -131 -22 -64 -47 -141 -55 -173 -24 -84 -57 -108 -150 -108
-120 0 -321 66 -379 124 -18 17 -65 98 -105 178 -41 81 -80 149 -89 152 -50
20 -109 -26 -154 -121 -54 -114 -140 -175 -179 -128 -6 8 -45 83 -87 167 -41
84 -91 176 -110 205 -62 91 -59 184 10 286 24 34 69 111 101 172 65 123 66
137 17 208 -45 65 -75 89 -107 85 -24 -2 -34 -13 -57 -62 -15 -32 -43 -79 -62
-104 -19 -25 -35 -50 -35 -57 0 -7 -24 -48 -53 -92 -29 -44 -63 -107 -75 -140
-23 -63 -88 -147 -123 -158 -28 -9 -53 16 -74 73 -10 26 -27 60 -39 77 -11 16
-56 99 -99 184 -94 185 -97 205 -43 289 20 31 52 89 70 129 19 39 52 98 74
130 22 32 51 81 65 108 54 109 85 164 117 208 l33 46 -58 117 c-52 106 -61
118 -99 135 -66 30 -104 25 -172 -23 -32 -22 -79 -50 -104 -61 -25 -11 -72
-39 -105 -62 -33 -23 -75 -48 -93 -55 -18 -7 -49 -26 -70 -42 -20 -17 -61 -41
-90 -54 -30 -13 -70 -37 -90 -53 -20 -15 -60 -40 -89 -55 -70 -35 -117 -78
-142 -129 -19 -39 -20 -65 -24 -351 -3 -291 -2 -311 17 -349 21 -43 102 -111
174 -147 26 -13 99 -57 162 -98 63 -41 142 -89 175 -106 33 -18 88 -50 121
-71 34 -22 90 -57 125 -78 35 -21 89 -54 119 -72 30 -19 81 -48 112 -64 74
-40 127 -87 144 -128 11 -26 14 -128 14 -487 l0 -455 -26 -20 c-15 -12 -36
-21 -48 -21 -29 0 -158 63 -215 104 -25 19 -64 43 -86 54 -22 12 -80 50 -130
86 -49 36 -117 81 -150 100 -78 45 -192 116 -312 194 -105 68 -147 78 -183 42
-18 -18 -20 -33 -20 -172 0 -185 6 -201 102 -249 35 -17 76 -41 93 -52 16 -12
54 -33 85 -48 30 -14 69 -37 85 -51 17 -14 66 -42 109 -62 90 -41 159 -94 182
-137 13 -25 16 -104 21 -495 6 -506 5 -514 -48 -533 -38 -13 -53 -7 -114 44
-27 23 -77 56 -110 75 -33 18 -86 51 -117 72 -32 21 -66 41 -75 45 -10 4 -38
22 -62 40 -51 38 -84 42 -105 11 -14 -19 -16 -68 -16 -333 0 -287 -2 -316 -20
-372 -15 -44 -31 -69 -58 -90 -20 -17 -95 -86 -165 -154 -71 -68 -146 -135
-168 -148 -91 -55 -342 -51 3621 -51 l3660 0 0 2085 c0 1413 -3 2085 -10 2085
-6 0 -27 -11 -48 -24 -24 -16 -59 -26 -100 -30 -35 -3 -73 -11 -85 -17 -12 -7
-35 -16 -52 -20 -16 -5 -68 -22 -115 -38 -79 -28 -95 -30 -225 -30 -150 -1
-188 9 -260 63 -16 12 -65 42 -107 65 -43 23 -80 47 -84 52 -3 6 -29 21 -58
33 -29 13 -77 40 -106 60 -67 46 -93 53 -126 31 l-27 -17 8 -278 c8 -307 3
-345 -41 -356 -43 -11 -79 3 -190 75 -59 39 -113 71 -120 71 -6 0 -47 23 -89
51 -43 28 -90 55 -104 60 -14 6 -46 25 -71 43 -25 18 -70 44 -100 58 -57 26
-173 122 -202 167 -14 23 -17 68 -21 352 -4 372 -3 369 -90 424 -26 17 -78 54
-115 82 -71 56 -102 64 -140 37 -40 -28 -52 -65 -46 -140 3 -38 12 -91 20
-118 11 -37 14 -123 14 -347 0 -233 3 -313 16 -374 23 -111 16 -216 -15 -249
-32 -34 -52 -33 -120 8 -31 19 -69 40 -84 45 -16 6 -85 47 -154 92 -69 44
-145 89 -167 101 -23 11 -61 35 -86 53 -25 18 -83 51 -130 73 -63 30 -100 55
-138 96 l-52 55 0 619 0 619 -22 33 c-25 35 -107 89 -228 149 -41 21 -104 56
-138 79 -35 23 -74 44 -85 48 -12 4 -43 22 -68 40 -46 33 -125 74 -144 74 -5
0 -30 -10 -55 -21z"/>
<path d="M4234 5975 c-27 -19 -69 -43 -92 -55 -24 -11 -65 -35 -90 -54 -26
-18 -72 -46 -102 -61 -30 -15 -71 -40 -90 -55 -19 -15 -55 -36 -80 -47 -64
-29 -96 -68 -114 -138 -14 -50 -16 -146 -16 -625 l0 -566 -29 -46 c-33 -51
-73 -85 -152 -126 -58 -30 -125 -70 -233 -140 -37 -24 -86 -50 -107 -57 -22
-8 -54 -25 -72 -38 -17 -14 -52 -35 -77 -47 -25 -13 -71 -40 -102 -61 -100
-68 -136 -70 -172 -7 -16 25 -17 38 -7 91 5 34 13 228 17 430 3 203 10 383 15
400 5 18 9 78 9 135 0 96 -2 105 -25 127 -37 38 -78 33 -131 -14 -24 -21 -71
-48 -104 -60 -67 -25 -82 -42 -106 -122 -14 -45 -17 -108 -18 -364 -1 -303 -2
-311 -24 -346 -27 -44 -75 -82 -137 -109 -25 -11 -61 -31 -78 -45 -18 -13 -64
-42 -103 -63 -81 -45 -150 -87 -255 -154 -41 -26 -78 -48 -82 -48 -4 0 -38
-20 -75 -45 -78 -52 -116 -58 -159 -21 l-28 24 3 204 c2 137 8 226 18 273 18
80 10 118 -30 136 -20 9 -36 5 -101 -25 -42 -20 -79 -36 -81 -36 -2 0 -37 -22
-77 -49 -77 -52 -155 -99 -227 -139 -25 -14 -68 -40 -96 -59 -80 -53 -131 -54
-275 -5 -68 24 -145 42 -190 47 -43 4 -96 17 -128 31 -29 13 -59 24 -66 24 -7
0 -44 16 -81 35 -38 19 -72 35 -76 35 -5 0 -8 -931 -8 -2070 l0 -2070 3670 0
c3974 0 3723 -4 3631 51 -40 24 -328 300 -368 353 -23 30 -23 33 -23 372 0
330 -1 342 -21 368 -26 33 -56 33 -100 2 -19 -14 -66 -43 -106 -65 -39 -23
-74 -45 -77 -50 -4 -5 -39 -27 -79 -49 -39 -22 -93 -58 -119 -81 -66 -58 -114
-55 -149 11 -8 14 -9 156 -5 480 5 437 6 460 25 487 38 54 124 114 325 228 27
16 71 43 99 61 28 18 78 48 112 67 102 57 100 52 103 242 4 174 -4 217 -38
228 -28 9 -78 -16 -145 -72 -33 -28 -79 -60 -103 -72 -41 -21 -285 -178 -402
-258 -30 -21 -79 -52 -110 -68 -55 -31 -179 -116 -233 -162 -38 -31 -90 -31
-111 -1 -14 20 -16 82 -16 481 0 505 -1 494 63 554 33 31 282 193 297 193 4 0
57 32 117 72 105 70 218 140 317 195 27 16 84 51 126 80 43 28 93 58 111 66
49 20 100 66 115 104 10 22 14 77 14 176 0 104 4 156 16 190 12 35 15 77 12
174 -3 112 -6 132 -24 155 -38 48 -128 118 -189 147 -33 16 -83 42 -110 58
-28 16 -66 35 -85 43 -32 13 -71 36 -250 149 -36 23 -87 52 -115 65 -27 13
-67 37 -89 54 -90 73 -182 42 -226 -76 -12 -30 -32 -68 -45 -84 -31 -36 -32
-79 -4 -104 12 -10 35 -46 51 -79 17 -33 42 -75 56 -94 13 -18 33 -56 44 -84
10 -27 34 -68 53 -90 19 -22 40 -56 46 -76 6 -20 32 -67 58 -106 44 -67 46
-74 49 -151 4 -90 -5 -117 -65 -191 -19 -23 -39 -58 -44 -79 -6 -20 -26 -59
-44 -86 -18 -26 -39 -65 -45 -85 -31 -97 -65 -107 -129 -38 -23 25 -49 62 -58
82 -10 21 -34 63 -54 93 -20 30 -52 87 -71 125 -19 39 -50 93 -69 122 -19 29
-43 67 -54 85 -32 52 -71 50 -123 -4 -72 -74 -78 -136 -22 -215 17 -23 37 -60
45 -83 8 -22 27 -59 43 -83 93 -135 93 -175 3 -350 -33 -65 -74 -137 -90 -160
-15 -23 -32 -52 -36 -65 -13 -43 -65 -92 -97 -92 -64 0 -92 30 -141 151 -18
44 -74 89 -110 89 -20 0 -35 -11 -57 -42 -16 -22 -30 -47 -30 -53 0 -7 -17
-39 -38 -71 -21 -33 -51 -80 -66 -106 -45 -80 -180 -167 -258 -168 -20 0 -65
-9 -100 -20 -79 -25 -105 -25 -144 -1 -28 17 -37 37 -88 192 -68 203 -70 252
-19 335 15 26 46 79 68 119 22 40 52 87 68 104 33 39 33 50 5 86 l-22 28 -142
-5 c-158 -6 -197 3 -214 47 -12 31 -2 59 49 134 21 31 71 112 112 181 40 69
89 140 109 158 58 55 84 62 243 62 134 0 149 2 203 26 73 32 99 55 131 118 28
56 23 82 -22 112 -23 15 -41 15 -194 5 -211 -14 -456 -14 -481 -1 -47 25 -45
72 5 126 29 31 63 89 148 254 61 117 88 142 168 159 29 7 173 11 349 11 279 0
301 1 347 21 26 11 61 32 76 47 45 43 128 170 134 205 7 47 -30 96 -97 130
-30 15 -73 40 -95 54 -45 31 -186 109 -290 162 -39 20 -93 52 -120 72 -76 55
-184 119 -240 141 -27 11 -70 35 -94 54 -61 47 -111 47 -177 -1z"/>
</g>
</svg>
