<?xml version="1.0" standalone="no"?>
<!DOCTYPE svg PUBLIC "-//W3C//DTD SVG 20010904//EN"
 "http://www.w3.org/TR/2001/REC-SVG-20010904/DTD/svg10.dtd">
<svg version="1.0" xmlns="http://www.w3.org/2000/svg"
 width="1876.000000pt" height="1744.000000pt" viewBox="0 0 1876.000000 1744.000000"
 preserveAspectRatio="xMidYMid meet">

<g transform="translate(0.000000,1744.000000) scale(0.100000,-0.100000)"
fill="#000000" stroke="none">
<path d="M9534 15235 c-21 -32 -12 -68 22 -84 52 -23 101 36 70 84 -22 34 -70
34 -92 0z"/>
<path d="M6265 15219 c-9 -13 -9 -13 42 -28 62 -17 65 -35 61 -364 -3 -266 -4
-279 -23 -290 -11 -7 -33 -14 -49 -17 -16 -3 -31 -11 -34 -17 -3 -10 28 -13
133 -13 105 0 136 3 133 12 -3 7 -21 16 -42 19 -20 3 -42 11 -49 18 -12 12
-22 349 -15 485 l3 58 135 -296 c94 -207 139 -295 150 -294 8 2 70 125 145
288 l130 285 3 -254 c3 -284 1 -291 -65 -291 -23 0 -33 -5 -33 -15 0 -13 25
-15 161 -15 124 0 160 3 157 13 -3 6 -18 13 -35 15 -64 6 -64 6 -61 348 l3
309 47 15 c27 8 46 20 45 25 -2 6 -47 10 -107 10 l-104 0 -124 -270 c-68 -148
-126 -273 -130 -277 -4 -4 -61 108 -126 250 -65 141 -124 267 -132 280 -13 20
-22 22 -114 22 -59 0 -101 -4 -105 -11z"/>
<path d="M7847 15105 c-11 -27 -41 -65 -73 -94 -30 -27 -54 -54 -54 -60 0 -6
15 -11 34 -11 l34 0 4 -195 c3 -177 5 -197 24 -222 30 -40 83 -51 125 -26 38
21 86 86 70 91 -6 2 -23 -6 -37 -17 -34 -27 -49 -26 -68 1 -13 18 -16 55 -16
195 l0 172 58 3 c49 3 57 6 57 23 0 17 -8 20 -57 23 l-58 3 0 79 c0 93 -15
105 -43 35z"/>
<path d="M7402 14983 c-96 -53 -138 -140 -130 -271 6 -91 30 -146 84 -191 61
-49 153 -59 221 -23 59 32 132 157 106 183 -7 7 -19 -4 -38 -36 -81 -139 -263
-71 -290 108 l-7 47 171 0 171 0 0 28 c-1 44 -35 107 -75 138 -32 24 -49 29
-109 32 -54 2 -79 -1 -104 -15z m108 -38 c32 -16 60 -61 60 -95 0 -19 -6 -20
-104 -20 -58 0 -107 4 -110 8 -11 18 37 94 68 108 40 17 51 17 86 -1z"/>
<path d="M8153 14981 c-48 -22 -74 -57 -75 -100 -1 -37 17 -61 46 -61 32 0 46
19 46 62 0 48 28 78 73 78 54 -1 87 -42 87 -109 0 -25 -6 -31 -47 -46 -83 -30
-163 -77 -193 -112 -25 -29 -30 -42 -30 -88 0 -46 5 -60 29 -87 27 -30 34 -33
88 -33 50 0 65 5 102 32 l44 32 16 -32 c12 -24 24 -33 46 -35 36 -4 92 31 114
70 19 33 8 47 -17 25 -10 -10 -26 -17 -34 -17 -13 0 -16 26 -20 179 -4 199
-11 221 -73 247 -49 20 -151 18 -202 -5z m173 -377 c-6 -16 -79 -54 -104 -54
-31 0 -64 44 -64 85 0 47 29 79 107 116 l60 29 3 -82 c2 -45 1 -87 -2 -94z"/>
<path d="M8634 14991 c-28 -12 -72 -66 -80 -97 -10 -41 3 -95 31 -124 14 -14
63 -48 110 -74 89 -49 105 -66 105 -114 0 -59 -63 -83 -131 -49 -34 17 -49 33
-69 74 -38 78 -50 69 -50 -36 l0 -88 48 0 c26 0 76 -1 112 -3 99 -5 167 40
177 118 12 87 -20 130 -141 191 -122 61 -151 104 -103 149 30 28 89 29 127 2
16 -11 36 -41 46 -65 9 -25 22 -44 28 -42 6 2 12 38 14 87 3 82 3 83 -20 76
-13 -4 -27 -7 -33 -7 -5 0 -41 3 -80 6 -38 3 -79 1 -91 -4z"/>
<path d="M9104 14981 c-111 -50 -165 -200 -124 -345 14 -51 68 -119 112 -142
76 -40 191 -9 242 65 33 48 58 119 45 127 -6 3 -11 4 -13 3 -1 -2 -13 -21 -26
-43 -56 -93 -163 -103 -232 -21 -24 27 -48 109 -48 160 0 87 45 159 107 171
44 8 74 -12 88 -62 14 -50 51 -73 89 -56 50 22 25 102 -44 141 -48 27 -139 28
-196 2z"/>
<path d="M9518 14972 c-74 -29 -89 -52 -34 -52 22 0 36 -6 40 -16 10 -27 7
-344 -4 -365 -6 -11 -21 -19 -35 -19 -16 0 -25 -6 -25 -15 0 -12 20 -15 120
-15 100 0 120 3 120 15 0 9 -9 15 -25 15 -14 0 -29 8 -35 19 -6 12 -10 107
-10 240 l0 221 -22 -1 c-13 0 -53 -12 -90 -27z"/>
<path d="M9902 14983 c-96 -53 -138 -140 -130 -271 6 -91 30 -146 84 -191 61
-49 153 -59 221 -23 59 32 132 157 106 183 -7 7 -19 -4 -38 -36 -81 -139 -263
-71 -290 108 l-7 47 171 0 171 0 0 28 c-1 44 -35 107 -75 138 -32 24 -49 29
-109 32 -54 2 -79 -1 -104 -15z m108 -38 c32 -16 60 -61 60 -95 0 -19 -6 -20
-104 -20 -58 0 -107 4 -110 8 -11 18 37 94 68 108 40 17 51 17 86 -1z"/>
<path d="M10282 14972 c-35 -15 -63 -31 -63 -37 0 -5 15 -12 33 -15 32 -5 33
-7 41 -65 4 -33 7 -115 5 -181 -4 -131 -12 -154 -54 -154 -15 0 -24 -6 -24
-15 0 -13 21 -15 125 -15 104 0 125 2 125 15 0 9 -9 15 -24 15 -50 0 -56 18
-56 184 l0 152 28 27 c65 62 143 57 162 -12 5 -20 10 -97 10 -171 0 -149 -10
-180 -56 -180 -15 0 -24 -6 -24 -15 0 -13 21 -15 125 -15 104 0 125 2 125 15
0 9 -9 15 -24 15 -45 0 -51 20 -56 214 -3 117 -9 189 -17 203 -49 84 -152 84
-240 0 l-33 -31 0 47 c0 42 -2 47 -22 46 -13 0 -51 -13 -86 -27z"/>
<path d="M10934 14981 c-111 -50 -165 -200 -124 -345 14 -51 68 -119 112 -142
76 -40 191 -9 242 65 33 48 58 119 45 127 -6 3 -11 4 -13 3 -1 -2 -13 -21 -26
-43 -56 -93 -163 -103 -232 -21 -24 27 -48 109 -48 160 0 87 45 159 107 171
44 8 74 -12 88 -62 14 -50 51 -73 89 -56 50 22 25 102 -44 141 -48 27 -139 28
-196 2z"/>
<path d="M11422 14983 c-96 -53 -138 -140 -130 -271 6 -91 30 -146 84 -191 61
-49 153 -59 221 -23 59 32 132 157 106 183 -7 7 -19 -4 -38 -36 -81 -139 -263
-71 -290 108 l-7 47 171 0 171 0 0 28 c-1 44 -35 107 -75 138 -32 24 -49 29
-109 32 -54 2 -79 -1 -104 -15z m108 -38 c32 -16 60 -61 60 -95 0 -19 -6 -20
-104 -20 -58 0 -107 4 -110 8 -11 18 37 94 68 108 40 17 51 17 86 -1z"/>
<path d="M2105 7300 c-4 -6 1 -27 10 -47 16 -34 16 -37 -2 -62 -35 -46 -458
-371 -485 -371 -9 0 -31 12 -48 26 -62 53 -46 7 32 -94 55 -70 84 -100 91 -93
7 7 4 18 -7 36 -36 55 -26 68 187 233 110 84 200 152 202 150 2 -2 -61 -127
-141 -278 -79 -151 -144 -281 -144 -287 0 -7 6 -13 13 -13 7 0 150 32 317 70
166 39 304 69 305 68 3 -4 -368 -289 -397 -305 -32 -17 -33 -17 -72 17 -32 29
-57 27 -40 -2 6 -10 165 -219 181 -237 2 -3 8 0 14 6 7 7 3 21 -12 47 -19 33
-20 38 -6 60 16 24 437 352 474 369 22 10 28 7 89 -38 7 -5 16 -6 20 -2 4 4
-20 41 -52 83 -32 42 -62 81 -65 85 -3 5 -140 -22 -304 -61 -164 -38 -300 -68
-301 -67 -1 1 61 121 137 267 76 146 139 271 139 278 0 7 -23 43 -52 80 -72
94 -74 96 -83 82z"/>
<path d="M17084 7164 c-21 -25 -54 -54 -73 -64 -47 -24 -96 -76 -115 -122 -52
-123 38 -255 166 -246 l48 3 6 -48 c4 -26 16 -59 27 -73 16 -21 25 -25 52 -20
l32 6 6 -54 c3 -29 13 -68 21 -85 14 -26 22 -31 52 -31 76 0 184 83 236 182
18 35 23 59 23 131 l0 88 -37 35 c-28 25 -47 34 -73 34 -54 0 -83 -20 -174
-119 -81 -89 -112 -108 -125 -75 -12 31 -6 51 25 80 33 31 62 82 73 126 16 68
-31 154 -101 184 -38 17 -40 24 -13 49 30 27 22 65 -15 65 -2 0 -21 -21 -41
-46z m-20 -136 c55 -17 136 -95 136 -132 0 -91 -96 -116 -190 -51 -45 31 -68
63 -76 105 -5 24 -1 35 24 60 34 33 46 36 106 18z m456 -219 c32 -59 -5 -147
-98 -231 -84 -75 -143 -72 -158 8 -6 31 0 40 77 125 115 126 153 147 179 98z"/>
<path d="M16654 6701 c-41 -25 -64 -77 -64 -146 l0 -57 -36 27 c-20 15 -39 23
-44 19 -4 -5 -18 -40 -30 -79 -13 -38 -25 -76 -28 -82 -7 -21 26 -15 38 7 17
32 42 24 121 -42 208 -174 212 -179 184 -222 -12 -18 -13 -26 -4 -31 6 -4 14
-3 18 2 3 5 39 48 79 96 41 48 71 91 67 97 -5 8 -15 4 -31 -10 -16 -16 -30
-21 -46 -17 -32 9 -248 193 -250 215 -10 116 56 175 135 120 60 -42 217 -180
228 -200 8 -15 6 -25 -6 -45 -11 -16 -13 -29 -7 -35 6 -6 39 26 91 86 77 90
92 126 36 90 -35 -23 -47 -16 -175 95 -151 130 -208 154 -276 112z"/>
<path d="M16117 6472 c-35 -38 -13 -92 36 -92 42 0 57 15 57 57 0 50 -59 72
-93 35z"/>
<path d="M16325 6323 c-9 -24 -55 -156 -55 -160 0 -12 30 1 43 20 l15 22 36
-20 c53 -30 255 -205 262 -227 3 -10 -1 -30 -10 -43 -11 -16 -12 -26 -5 -30 6
-4 12 -5 13 -4 90 100 154 185 146 193 -6 6 -16 4 -28 -7 -10 -9 -27 -17 -38
-17 -10 0 -95 65 -189 145 -93 79 -173 144 -176 145 -4 0 -10 -8 -14 -17z"/>
<path d="M2430 6269 c-52 -21 -123 -74 -155 -116 -112 -147 -27 -345 147 -342
63 1 122 20 126 41 2 12 -8 14 -55 11 -45 -3 -65 0 -90 16 -87 55 -87 185 1
270 l34 33 102 -132 c56 -72 107 -129 113 -127 6 2 24 20 41 41 26 31 31 48
34 104 4 62 2 70 -30 116 -44 67 -101 96 -182 95 -34 0 -72 -5 -86 -10z m195
-69 c29 -27 37 -66 21 -105 -28 -65 -38 -63 -109 27 -63 81 -64 83 -43 96 31
18 103 9 131 -18z"/>
<path d="M15935 6260 c-3 -6 -17 -42 -31 -82 -18 -53 -21 -75 -13 -82 8 -8 13
-7 16 2 3 7 12 19 20 28 21 20 30 14 282 -200 211 -179 238 -209 211 -242 -9
-10 -10 -18 -3 -25 7 -7 34 18 87 79 70 83 88 113 69 112 -5 0 -17 -7 -27 -15
-11 -8 -29 -15 -40 -15 -13 0 -129 92 -286 225 -146 124 -268 225 -272 225 -4
0 -10 -5 -13 -10z"/>
<path d="M15735 6028 c-37 -100 -52 -159 -43 -164 6 -4 19 4 29 17 15 20 21
22 43 14 28 -11 439 -357 461 -388 12 -17 12 -24 0 -48 -10 -19 -12 -30 -4
-34 6 -4 12 -5 14 -4 59 64 152 186 145 193 -5 5 -20 0 -35 -12 -24 -19 -30
-20 -54 -8 -14 8 -140 112 -280 230 -140 119 -258 216 -263 216 -5 0 -11 -6
-13 -12z"/>
<path d="M2755 5895 c-29 -28 -31 -47 -9 -69 21 -22 51 -20 81 4 36 28 67 25
97 -11 35 -41 33 -63 -12 -111 l-39 -41 -71 42 c-157 92 -250 94 -302 8 -48
-78 0 -173 100 -197 54 -13 56 -16 35 -44 -20 -27 -19 -40 8 -71 28 -32 123
-52 146 -30 12 12 9 15 -19 22 -19 5 -35 14 -37 20 -4 11 48 58 189 167 42 32
81 69 87 83 24 54 6 116 -56 183 -65 73 -151 92 -198 45z m19 -221 c31 -16 56
-31 56 -34 -1 -3 -31 -28 -68 -56 l-68 -52 -39 14 c-78 26 -97 84 -45 136 27
26 36 30 70 25 21 -3 64 -18 94 -33z"/>
<path d="M15725 5597 c-61 -34 -98 -95 -103 -167 -6 -80 16 -137 79 -201 134
-138 316 -131 391 15 16 32 19 52 15 98 -6 67 -48 151 -72 142 -13 -5 -13 -10
0 -34 50 -96 -27 -210 -141 -210 -44 0 -149 47 -149 67 0 6 46 66 103 132 57
67 100 126 97 131 -4 6 -24 19 -45 30 -53 27 -124 26 -175 -3z m99 -82 c17
-13 17 -17 5 -34 -38 -53 -115 -140 -125 -140 -13 -1 -44 62 -44 90 0 27 26
76 47 88 26 15 95 13 117 -4z"/>
<path d="M3060 5518 c-64 -33 -73 -54 -64 -168 12 -161 11 -178 -13 -201 -31
-31 -71 -28 -105 10 -37 42 -38 107 -3 170 14 24 22 48 18 52 -5 5 -41 -17
-81 -48 -71 -55 -73 -57 -54 -72 11 -9 29 -35 40 -57 54 -108 134 -156 219
-132 83 23 112 96 89 222 -23 118 -21 148 9 176 21 20 30 22 52 14 33 -11 73
-67 73 -102 0 -13 -12 -46 -27 -72 -15 -27 -24 -52 -20 -56 7 -7 55 24 117 75
l35 30 -26 10 c-16 6 -31 22 -38 42 -25 73 -92 129 -154 129 -12 0 -43 -10
-67 -22z"/>
<path d="M15237 5443 c-17 -30 -48 -147 -42 -161 6 -15 9 -13 27 11 11 15 23
27 28 27 5 0 43 -28 86 -61 l77 -62 -29 -12 c-39 -16 -89 -74 -104 -121 -27
-81 10 -204 83 -277 106 -106 276 -109 344 -6 14 21 28 59 31 84 l5 46 24 -17
c14 -9 29 -12 33 -7 4 4 19 43 33 85 26 81 21 108 -12 66 -16 -19 -23 -21 -45
-13 -14 6 -134 102 -267 215 -132 113 -247 206 -254 208 -7 2 -15 -1 -18 -5z
m237 -312 c13 -6 69 -47 123 -92 54 -45 100 -84 102 -86 8 -6 2 -68 -9 -88
-17 -33 -63 -55 -112 -55 -123 0 -277 156 -252 255 14 57 86 89 148 66z"/>
<path d="M3355 5280 c-3 -5 1 -21 10 -34 24 -37 13 -56 -67 -117 -189 -142
-228 -185 -228 -249 0 -73 55 -124 147 -137 l47 -6 -38 -32 c-43 -36 -43 -37
61 -97 45 -27 64 -33 72 -25 9 9 6 16 -10 28 -15 11 -19 22 -15 36 3 10 78 75
166 143 101 77 157 127 152 134 -20 33 -95 126 -102 126 -16 0 -18 -14 -5 -41
8 -15 12 -34 9 -42 -3 -8 -59 -56 -124 -106 -81 -62 -128 -91 -146 -91 -43 0
-95 30 -111 66 -15 30 -15 35 0 58 9 14 76 71 149 127 73 56 139 108 147 115
11 10 5 24 -40 83 -55 71 -63 78 -74 61z"/>
<path d="M3665 4810 c-4 -6 0 -19 9 -29 9 -10 16 -25 16 -34 0 -22 -266 -227
-295 -227 -12 0 -28 7 -35 15 -16 19 -44 20 -37 1 7 -17 135 -183 148 -191 20
-13 27 7 11 34 -15 26 -15 30 0 54 10 13 65 61 123 106 102 79 107 82 152 79
46 -3 47 -4 55 -42 10 -49 24 -66 53 -66 45 0 69 55 44 102 -13 24 -67 48
-111 48 l-33 1 35 29 35 30 -23 18 c-49 38 -140 83 -147 72z"/>
<path d="M15042 4779 c-122 -62 -163 -199 -98 -326 71 -139 245 -200 364 -126
86 53 129 161 103 259 -16 60 -79 144 -134 178 -66 40 -172 48 -235 15z m159
-100 c73 -39 156 -126 165 -173 8 -44 -16 -91 -58 -112 -65 -34 -184 9 -275
99 -63 61 -80 102 -63 153 27 80 117 93 231 33z"/>
<path d="M14533 4555 c-35 -40 -63 -77 -63 -81 0 -4 57 -129 126 -276 70 -148
124 -271 121 -274 -3 -3 -135 31 -294 75 l-288 80 -44 -47 c-66 -70 -93 -110
-86 -122 4 -7 17 -1 37 15 52 44 38 52 288 -159 261 -221 262 -222 224 -282
-10 -15 -13 -29 -8 -34 5 -5 43 32 93 91 46 55 81 103 77 107 -4 3 -13 2 -20
-3 -63 -46 -64 -47 -89 -33 -37 19 -391 322 -381 325 5 2 144 -35 309 -82 165
-46 303 -81 307 -77 5 5 -52 138 -127 297 -74 159 -133 290 -132 292 5 4 366
-303 383 -325 19 -24 17 -46 -7 -76 -15 -19 -18 -31 -12 -37 9 -9 68 53 202
214 25 30 -1 41 -29 12 -45 -48 -60 -40 -296 161 -120 102 -225 195 -232 206
-13 18 -12 25 4 57 10 20 20 39 22 44 2 4 -2 7 -10 7 -7 0 -41 -34 -75 -75z"/>
<path d="M3883 4439 c-23 -4 -56 -15 -74 -24 -50 -26 -130 -106 -150 -150 -23
-50 -24 -136 -3 -181 26 -55 85 -101 141 -110 59 -9 156 13 161 37 2 13 -7 15
-56 11 -52 -4 -61 -1 -91 24 -57 48 -75 120 -47 188 14 33 72 106 85 106 4 0
50 -55 101 -122 51 -68 97 -127 101 -132 6 -6 21 1 38 18 146 140 2 374 -206
335z m137 -64 c34 -18 50 -43 50 -80 0 -31 -24 -81 -42 -88 -8 -3 -38 28 -76
77 -55 73 -60 82 -45 94 23 17 78 15 113 -3z"/>
<path d="M4185 4130 c-3 -5 3 -18 14 -29 12 -12 18 -27 15 -36 -4 -9 -54 -53
-113 -98 -180 -140 -187 -143 -222 -111 -10 9 -23 13 -28 9 -7 -4 19 -46 65
-106 74 -97 107 -117 82 -52 -10 28 -9 35 7 54 38 42 237 189 256 189 25 0 91
-33 109 -55 21 -25 16 -72 -10 -100 -37 -40 -245 -195 -260 -195 -8 0 -24 10
-37 22 -15 14 -27 18 -33 12 -7 -7 14 -41 60 -102 39 -50 75 -94 80 -97 21
-13 30 6 14 30 -9 13 -13 32 -10 42 3 10 60 60 127 112 113 87 124 93 157 87
71 -11 125 -74 105 -119 -15 -32 -251 -217 -278 -217 -11 0 -31 7 -43 16 -51
35 -37 -3 35 -97 51 -66 80 -96 87 -89 6 6 5 18 -2 35 -8 16 -9 33 -4 42 5 8
65 59 133 112 68 53 134 112 146 131 33 48 31 109 -4 151 -32 38 -95 68 -142
69 -28 0 -32 3 -25 18 17 39 15 107 -5 138 -22 36 -93 74 -139 74 -40 0 -40 8
-1 41 18 14 29 31 26 36 -7 10 -141 93 -151 93 -2 0 -7 -4 -11 -10z"/>
<path d="M4643 3356 c-66 -31 -141 -100 -164 -151 -35 -75 -22 -180 30 -239
46 -52 161 -73 236 -42 52 22 47 46 -7 35 -53 -9 -118 16 -144 56 -28 42 -30
116 -5 167 19 41 77 107 84 97 139 -182 201 -259 207 -259 17 0 70 72 81 111
10 32 10 50 0 87 -36 137 -183 200 -318 138z m219 -65 c16 -17 28 -43 28 -57
0 -27 -35 -94 -50 -94 -4 0 -36 37 -70 81 -61 78 -63 82 -44 96 32 25 103 11
136 -26z"/>
<path d="M5000 3066 c0 -7 7 -19 15 -26 23 -19 18 -35 -25 -74 -72 -65 -241
-186 -259 -186 -10 0 -24 7 -31 15 -13 16 -40 20 -40 6 0 -4 27 -44 61 -87 34
-44 67 -88 75 -99 10 -14 17 -16 25 -8 8 8 7 17 -4 33 -8 12 -12 30 -10 41 3
11 62 63 130 116 l125 96 39 -12 c21 -6 52 -23 69 -37 42 -36 40 -68 -8 -113
-70 -66 -229 -181 -250 -181 -12 0 -30 10 -41 22 -18 18 -21 19 -27 5 -8 -21
136 -211 150 -197 6 6 5 19 -2 35 -8 16 -9 33 -4 42 5 8 65 59 133 112 143
112 169 144 169 209 0 39 -5 50 -39 82 -25 24 -53 40 -78 44 -77 14 -79 15
-40 43 20 14 33 31 31 38 -5 11 -142 95 -157 95 -4 0 -7 -6 -7 -14z"/>
<path d="M5355 2650 c-4 -6 2 -22 14 -34 12 -12 21 -26 21 -32 0 -5 -59 -54
-131 -108 -152 -116 -189 -155 -189 -196 0 -62 80 -114 154 -100 39 7 39 24 1
28 -41 5 -57 20 -53 51 2 20 35 51 143 134 l139 109 36 -42 c25 -30 40 -39 53
-35 23 9 22 15 -13 61 -16 21 -30 42 -30 46 0 3 27 26 60 50 58 42 72 66 34
60 -109 -16 -153 -13 -215 13 -10 3 -20 1 -24 -5z"/>
</g>
</svg>
